# xmcd CD database file
#
# Track frame offsets:
#	150
#	20663
#	44113
#	73873
#	98128
#	122658
#	144143
#	156620
#	177710
#	194965
#	215278
#
# Disc length: 3221 seconds
#
# Revision: 2
# Processed by: cddbd v1.5.2PL0 Copyright (c) Steve Scherf et al.
# Submitted via: CDex 1.70beta2
#
DISCID=b20c930b
DTITLE=カーネーション - A Beautiful Day
DYEAR=1995
DGENRE=Japanese Pop
TTITLE0=Happy Time
TTITLE1=市民プール
TTITLE2=It's a Beautiful Day
TTITLE3=未来の恋人たち
TTITLE4=車の上のホーリー・キャット
TTITLE5=ハイウェイ・ソング
TTITLE6=VIVA!
TTITLE7=Hey Mama
TTITLE8=GLORY
TTITLE9=摩天楼に雪が降る
TTITLE10=世界の果てまでつれてってよ
EXTD=YEAR: 1995
EXTT0=
EXTT1=
EXTT2=
EXTT3=
EXTT4=
EXTT5=
EXTT6=
EXTT7=
EXTT8=
EXTT9=
EXTT10=
PLAYORDER=
